<svg width="96" height="96" xmlns="http://www.w3.org/2000/svg" xmlns:xlink="http://www.w3.org/1999/xlink" overflow="hidden"><defs><clipPath id="clip0"><rect x="371" y="26" width="96" height="96"/></clipPath></defs><g clip-path="url(#clip0)" transform="translate(-371 -26)"><path d="M457.833 42.142 450.8 35.084C449.239 33.5208 446.706 33.5189 445.143 35.0798 445.142 35.0812 445.14 35.0826 445.139 35.084L385.039 95.184 379.012 114 397.766 107.906 397.766 107.906 457.83 47.793C459.389 46.2324 459.39 43.7043 457.833 42.142ZM438.072 44.974 447.949 54.852 445.814 56.989 435.935 47.11ZM396.63 106.173 385.505 109.787 383.2 107.481 386.776 96.313C388.801 94.721 392.352 95.421 394.939 98.007 397.526 100.593 398.226 104.149 396.63 106.173ZM396.352 96.593C394.564 94.7293 392.131 93.6202 389.552 93.493L434.521 48.524 444.4 58.4 399.457 103.385C399.326 100.808 398.215 98.3784 396.352 96.593ZM456.415 46.379 449.363 53.437 439.486 43.56 446.552 36.493C447.332 35.7112 448.599 35.7101 449.38 36.4904 449.381 36.4913 449.382 36.4921 449.383 36.493L456.417 43.551C457.197 44.3326 457.196 45.5986 456.415 46.379Z"/></g></svg>