<svg width="96" height="96" xmlns="http://www.w3.org/2000/svg" xmlns:xlink="http://www.w3.org/1999/xlink" overflow="hidden"><defs><clipPath id="clip0"><rect x="938" y="523" width="96" height="96"/></clipPath></defs><g clip-path="url(#clip0)" transform="translate(-938 -523)"><path d="M1019 545C1018.99 542.794 1017.21 541.007 1015 541L997 541 997 538C996.997 535.24 994.76 533.003 992 533L980 533C977.24 533.003 975.003 535.24 975 538L975 541 957 541C954.794 541.007 953.007 542.794 953 545L953 551 957.049 551 959.809 605.254C959.944 607.912 962.138 609.999 964.8 610L1007.2 610C1009.86 610 1012.06 607.913 1012.19 605.254L1014.95 551 1019 551ZM977 538C977 536.343 978.343 535 980 535L992 535C993.657 535 995 536.343 995 538L995 541 977 541ZM1010.19 605.152C1010.11 606.747 1008.8 607.999 1007.2 608L964.8 608C963.201 608.002 961.881 606.749 961.8 605.152L959.052 551 1012.95 551ZM1017 549 955 549 955 545C955 543.895 955.895 543 957 543L1015 543C1016.1 543 1017 543.895 1017 545Z"/><path d="M974 601 974.05 601C974.602 600.973 975.027 600.504 975 599.952 975 599.952 975 599.951 975 599.951L973 558.951C972.972 558.399 972.502 557.973 971.95 558.001 971.398 558.029 970.972 558.499 971 559.051L973 600.051C973.027 600.583 973.467 601.001 974 601Z"/><path d="M986 601C986.552 601 987 600.552 987 600L987 559C987 558.448 986.552 558 986 558 985.448 558 985 558.448 985 559L985 600C985 600.552 985.448 601 986 601Z"/><path d="M997.951 601 998 601C998.534 601.001 998.974 600.582 999 600.049L1001 559.049C1001.03 558.497 1000.6 558.027 1000.05 557.999 999.498 557.971 999.028 558.397 999 558.949L997 599.949C996.971 600.5 997.395 600.971 997.946 601 997.948 601 997.95 601 997.951 601Z"/></g></svg>